<?xml version="1.0" standalone="no"?><!DOCTYPE svg PUBLIC "-//W3C//DTD SVG 1.1//EN" "http://www.w3.org/Graphics/SVG/1.1/DTD/svg11.dtd"><svg t="1579512897257" class="icon" viewBox="0 0 1024 1024" version="1.1" xmlns="http://www.w3.org/2000/svg" p-id="1109" xmlns:xlink="http://www.w3.org/1999/xlink" width="200" height="200"><defs><style type="text/css"></style></defs><path d="M925.76107 278.522458l-16.542768 49.136094c0 0-79.438237-196.570981-314.467111-245.720378 0 0-96.866165-21.942755-198.602244 0-13.964036 7.977695-254.891248 85.180008-297.91718 311.248813 0 0 9.928117 68.815295 49.646724 0 0 0 23.170722-176.919409 281.368272-262.098393l182.061522 0c0 0 211.844849 72.074525 264.812201 245.720378l16.556071 81.906451 49.640584 16.392342 16.556071-196.584284L925.76107 278.523481z" p-id="1110" fill="#cdcdcd"></path><path d="M876.120486 636.506688c0 0-23.170722 176.919409-281.369296 262.098393L412.690692 898.605082c0 0-211.844849-72.074525-264.813225-245.720378l-16.548908-81.906451-49.653887-16.392342L65.126788 751.170195l33.104979 0 16.548908-49.136094c0 0 116.961852 225.768977 314.467111 245.720378 83.788312 19.951401 198.61657 0 198.61657 0s254.884085-85.180008 297.896714-311.24779C925.76107 636.506688 915.832953 567.691393 876.120486 636.506688z" p-id="1111" fill="#cdcdcd"></path></svg>